# xmcd CD database file
#
# Track frame offsets:
#	150
#	23086
#	42790
#	63281
#	84590
#	105462
#	124161
#	143678
#
# Disc length: 2177 seconds
#
# Revision: 0
# Processed by: cddbd v1.5.1PL2 Copyright (c) Steve Scherf et al.
# Submitted via: CDex 1.51
#
DISCID=5e087f08
DTITLE=The New York Power - Arroyando
DYEAR=1900
DGENRE=Salsa
TTITLE0=Exotica
TTITLE1=Arrepentida
TTITLE2=Engreido Contigo
TTITLE3=Porque Te Quiero (Muneca)
TTITLE4=Ninguna Como Tu
TTITLE5=Me Duele (Solamente Tu)
TTITLE6=Yo Soy Tu Dueno
TTITLE7=Tu Pinturita De Amor
EXTD=
EXTT0=
EXTT1=
EXTT2=
EXTT3=
EXTT4=
EXTT5=
EXTT6=
EXTT7=
PLAYORDER=
